<svg width="45" height="45" viewBox="0 0 45 45" fill="none" xmlns="http://www.w3.org/2000/svg">
<rect width="45" height="45" rx="22.5" fill="white"/>
<g clip-path="url(#clip0)">
<path d="M33.4758 19.3974L33.7378 19.2427C33.9239 19.1337 34.1328 19.0692 34.348 19.0541C33.6807 17.2888 32.6289 15.6941 31.2687 14.3858C29.9086 13.0775 28.2743 12.0884 26.4844 11.4902V12.4799C28.0794 13.061 29.53 13.98 30.7367 15.1739C31.9435 16.3679 32.8778 17.8086 33.4758 19.3974Z" fill="#295090"/>
<path d="M11.5243 19.3974C12.1222 17.8086 13.0566 16.3679 14.2633 15.1739C15.4701 13.98 16.9206 13.061 18.5157 12.4799V11.4902C16.7258 12.0884 15.0915 13.0775 13.7313 14.3858C12.3712 15.6941 11.3194 17.2888 10.6521 19.0541C10.8673 19.0692 11.0761 19.1337 11.2623 19.2427L11.5243 19.3974Z" fill="#295090"/>
<path d="M33.4758 27.603C32.8778 29.1918 31.9435 30.6325 30.7367 31.8265C29.53 33.0205 28.0794 33.9395 26.4844 34.5205V35.5102C28.2743 34.912 29.9086 33.9229 31.2687 32.6146C32.6288 31.3063 33.6807 29.7117 34.348 27.9464C34.1327 27.9313 33.9239 27.8667 33.7376 27.7578L33.4758 27.603Z" fill="#295090"/>
<path d="M11.5243 27.603L11.2624 27.7578C11.0762 27.8667 10.8673 27.9313 10.6521 27.9464C11.3194 29.7117 12.3712 31.3063 13.7314 32.6146C15.0915 33.9229 16.7258 34.912 18.5157 35.5102V34.5205C16.9206 33.9395 15.4701 33.0205 14.2633 31.8265C13.0566 30.6325 12.1222 29.1918 11.5243 27.603Z" fill="#295090"/>
<path d="M19.6834 13.9424L22.2615 15.466C22.3339 15.5083 22.4162 15.5306 22.5 15.5306C22.5838 15.5306 22.6661 15.5083 22.7385 15.466L25.3166 13.9424C25.3868 13.9009 25.4449 13.8419 25.4853 13.7712C25.5257 13.7004 25.5469 13.6203 25.5469 13.5388V10.4922C25.5469 10.4107 25.5257 10.3306 25.4853 10.2599C25.4449 10.1891 25.3868 10.1301 25.3166 10.0887L22.7385 8.56523C22.6663 8.52253 22.5839 8.5 22.5 8.5C22.4161 8.5 22.3337 8.52253 22.2615 8.56523L19.6834 10.0887C19.6132 10.1301 19.5551 10.1891 19.5147 10.2599C19.4743 10.3306 19.4531 10.4107 19.4531 10.4922V13.5388C19.4531 13.6203 19.4743 13.7004 19.5147 13.7712C19.5551 13.8419 19.6132 13.9009 19.6834 13.9424ZM20.3906 10.7595L22.5 9.51326L24.6094 10.7595V13.2715L22.5 14.518L20.3906 13.2715V10.7595Z" fill="#295090"/>
<path d="M25.3166 33.0579L22.7385 31.5345C22.6663 31.4918 22.5839 31.4692 22.5 31.4692C22.4161 31.4692 22.3337 31.4918 22.2615 31.5345L19.6834 33.0579C19.6132 33.0993 19.5551 33.1584 19.5147 33.2291C19.4743 33.2999 19.4531 33.38 19.4531 33.4614V36.5082C19.4531 36.5897 19.4743 36.6697 19.5147 36.7405C19.5551 36.8112 19.6132 36.8703 19.6834 36.9117L22.2615 38.4352C22.3338 38.4777 22.4162 38.5 22.5 38.5C22.5838 38.5 22.6662 38.4777 22.7385 38.4352L25.3166 36.9117C25.3868 36.8703 25.4449 36.8112 25.4853 36.7405C25.5257 36.6697 25.5469 36.5897 25.5469 36.5082V33.4614C25.5469 33.38 25.5257 33.2999 25.4853 33.2291C25.4449 33.1584 25.3868 33.0993 25.3166 33.0579ZM24.6094 36.2407L22.5 37.4872L20.3906 36.2407V33.7289L22.5 32.4825L24.6094 33.7289V36.2407Z" fill="#295090"/>
<path d="M13.3635 25.4271C13.4336 25.3856 13.4918 25.3266 13.5321 25.2559C13.5725 25.1851 13.5938 25.105 13.5938 25.0236V21.9768C13.5938 21.8953 13.5725 21.8153 13.5321 21.7445C13.4918 21.6737 13.4336 21.6147 13.3635 21.5733L10.7854 20.0499C10.7131 20.0071 10.6308 19.9846 10.5469 19.9846C10.463 19.9846 10.3806 20.0071 10.3084 20.0499L7.73025 21.5733C7.66011 21.6147 7.60198 21.6737 7.5616 21.7445C7.52123 21.8153 7.49999 21.8953 7.5 21.9768V25.0236C7.49999 25.105 7.52123 25.1851 7.56161 25.2559C7.60198 25.3266 7.66011 25.3856 7.73025 25.4271L10.3084 26.9506C10.3807 26.993 10.463 27.0154 10.5469 27.0154C10.6307 27.0154 10.713 26.993 10.7854 26.9506L13.3635 25.4271ZM8.4375 24.7561V22.2443L10.5469 20.9979L12.6562 22.2443V24.7561L10.5469 26.0026L8.4375 24.7561Z" fill="#295090"/>
<path d="M37.2698 21.5733L34.6916 20.0499C34.6194 20.0071 34.537 19.9846 34.4531 19.9846C34.3692 19.9846 34.2869 20.0071 34.2146 20.0499L31.6365 21.5733C31.5664 21.6147 31.5082 21.6737 31.4679 21.7445C31.4275 21.8153 31.4062 21.8953 31.4063 21.9768V25.0236C31.4062 25.105 31.4275 25.1851 31.4679 25.2559C31.5082 25.3266 31.5664 25.3856 31.6365 25.4271L34.2146 26.9506C34.287 26.993 34.3693 27.0154 34.4531 27.0154C34.537 27.0154 34.6193 26.993 34.6916 26.9506L37.2698 25.4271C37.3399 25.3856 37.398 25.3266 37.4384 25.2559C37.4788 25.1851 37.5 25.105 37.5 25.0236V21.9768C37.5 21.8953 37.4788 21.8153 37.4384 21.7445C37.398 21.6737 37.3399 21.6147 37.2698 21.5733ZM36.5625 24.7561L34.4531 26.0026L32.3438 24.7561V22.2443L34.4531 20.9979L36.5625 22.2443V24.7561Z" fill="#295090"/>
<path d="M25.0781 19.9846C25.0781 19.4747 24.9269 18.9763 24.6436 18.5523C24.3603 18.1283 23.9577 17.7979 23.4866 17.6027C23.0155 17.4076 22.4971 17.3566 21.997 17.456C21.4969 17.5555 21.0375 17.8011 20.677 18.1616C20.3164 18.5222 20.0709 18.9815 19.9714 19.4817C19.8719 19.9818 19.923 20.5001 20.1181 20.9712C20.3133 21.4423 20.6437 21.845 21.0677 22.1283C21.4916 22.4115 21.9901 22.5627 22.5 22.5627C23.1835 22.562 23.8388 22.2901 24.3222 21.8068C24.8055 21.3235 25.0774 20.6681 25.0781 19.9846ZM22.5 21.6252C22.1755 21.6252 21.8583 21.529 21.5885 21.3487C21.3187 21.1685 21.1084 20.9122 20.9843 20.6125C20.8601 20.3127 20.8276 19.9828 20.8909 19.6645C20.9542 19.3463 21.1105 19.054 21.3399 18.8245C21.5693 18.5951 21.8617 18.4388 22.1799 18.3755C22.4982 18.3122 22.8281 18.3447 23.1278 18.4689C23.4276 18.5931 23.6839 18.8033 23.8641 19.0731C24.0444 19.3429 24.1406 19.6601 24.1406 19.9846C24.1401 20.4196 23.9671 20.8366 23.6596 21.1442C23.352 21.4517 22.935 21.6248 22.5 21.6252Z" fill="#295090"/>
<path d="M24.6336 23.4331C24.6063 23.5148 24.602 23.6025 24.6212 23.6865C24.6404 23.7705 24.6825 23.8476 24.7427 23.9093L25.3978 24.5805L25.2421 25.5342C25.228 25.621 25.2386 25.7101 25.2726 25.7911C25.3067 25.8722 25.3629 25.9421 25.4348 25.9928C25.5067 26.0434 25.5914 26.0728 25.6793 26.0776C25.7671 26.0824 25.8545 26.0624 25.9315 26.0199L26.7187 25.5848L27.506 26.0199C27.583 26.0624 27.6704 26.0824 27.7582 26.0776C27.846 26.0728 27.9307 26.0434 28.0026 25.9928C28.0746 25.9421 28.1308 25.8722 28.1648 25.7911C28.1989 25.7101 28.2095 25.621 28.1954 25.5342L28.0397 24.5805L28.6948 23.9093C28.755 23.8476 28.797 23.7705 28.8163 23.6865C28.8355 23.6025 28.8312 23.5148 28.8039 23.4331C28.7765 23.3514 28.7272 23.2788 28.6613 23.2233C28.5953 23.1678 28.5154 23.1315 28.4302 23.1185L27.5439 22.983L27.1431 22.1291C27.1052 22.0486 27.0452 21.9804 26.9701 21.9327C26.8949 21.885 26.8078 21.8596 26.7187 21.8596C26.6297 21.8596 26.5425 21.885 26.4674 21.9327C26.3922 21.9804 26.3322 22.0486 26.2944 22.1291L25.8936 22.983L25.0073 23.1185C24.9221 23.1315 24.8421 23.1677 24.7762 23.2232C24.7103 23.2787 24.6609 23.3513 24.6336 23.4331ZM26.2825 23.8719C26.3586 23.8603 26.4306 23.8301 26.4923 23.7841C26.5539 23.738 26.6033 23.6775 26.636 23.6078L26.7187 23.4315L26.8015 23.6078C26.8342 23.6775 26.8836 23.738 26.9452 23.7841C27.0069 23.8301 27.0789 23.8603 27.155 23.8719L27.3867 23.9073L27.2036 24.095C27.1524 24.1475 27.1141 24.2113 27.092 24.2813C27.0699 24.3512 27.0646 24.4254 27.0764 24.4978L27.1147 24.7324L26.9454 24.6389C26.876 24.6006 26.798 24.5805 26.7187 24.5805C26.6394 24.5805 26.5614 24.6006 26.492 24.6389L26.3228 24.7324L26.3611 24.4978C26.3729 24.4254 26.3675 24.3512 26.3454 24.2813C26.3233 24.2113 26.2851 24.1475 26.2339 24.095L26.0507 23.9073L26.2825 23.8719Z" fill="#295090"/>
<path d="M21.411 23.3254L20.8682 26.0846C20.8527 26.1634 20.8577 26.2449 20.8827 26.3213C20.9078 26.3976 20.952 26.4662 21.0112 26.5205L22.1831 27.5956C22.2696 27.6749 22.3827 27.7189 22.5 27.7189C22.6174 27.7189 22.7305 27.6749 22.8169 27.5956L23.9888 26.5205C24.048 26.4662 24.0923 26.3976 24.1173 26.3213C24.1424 26.2449 24.1474 26.1634 24.1318 26.0846L23.589 23.3254C23.2903 23.4221 22.9799 23.478 22.6662 23.4917L23.1611 26.0076L22.5 26.6141L21.8389 26.0076L22.3338 23.4917C22.0202 23.478 21.7097 23.4221 21.411 23.3254Z" fill="#295090"/>
<path d="M27.6563 28.4361V27.0111C27.4447 27.0006 27.2383 26.9423 27.0525 26.8405L26.7188 26.656V28.4361C26.7208 28.5545 26.6757 28.6689 26.5935 28.7542C26.5113 28.8394 26.3986 28.8886 26.2802 28.8909H18.7198C18.6014 28.8886 18.4888 28.8394 18.4066 28.7542C18.3243 28.6689 18.2793 28.5545 18.2813 28.4361V25.3998C18.2759 24.8402 18.4927 24.3012 18.8841 23.9012C19.2755 23.5012 19.8096 23.2727 20.3693 23.2659H21.2484C20.7427 23.072 20.2885 22.764 19.9212 22.366C19.2003 22.4809 18.5442 22.8499 18.0715 23.4063C17.5988 23.9627 17.3407 24.6698 17.3438 25.3998V28.4361C17.3421 28.8031 17.486 29.1558 17.7439 29.4168C18.0019 29.6778 18.3528 29.8258 18.7198 29.8284H26.2802C26.6472 29.8258 26.9982 29.6778 27.2561 29.4168C27.5141 29.1558 27.658 28.8031 27.6563 28.4361Z" fill="#295090"/>
<path d="M23.8349 11.3609C23.769 11.2555 23.6639 11.1806 23.5428 11.1526C23.4216 11.1247 23.2944 11.146 23.189 11.2119L22.2445 11.8024L21.9295 11.4057C21.8522 11.3085 21.7394 11.246 21.616 11.2319C21.4925 11.2178 21.3686 11.2533 21.2713 11.3305C21.174 11.4078 21.1113 11.5205 21.0971 11.6439C21.0828 11.7673 21.1182 11.8913 21.1953 11.9887L21.7707 12.7133C21.843 12.8027 21.9453 12.8627 22.0585 12.8822C22.1718 12.9017 22.2883 12.8793 22.3863 12.8193L23.6859 12.0068C23.7381 11.9742 23.7833 11.9316 23.8191 11.8814C23.8548 11.8313 23.8803 11.7747 23.8942 11.7147C23.908 11.6547 23.9099 11.5926 23.8997 11.5319C23.8895 11.4712 23.8675 11.413 23.8349 11.3609Z" fill="#295090"/>
<path d="M21.9295 34.3746C21.8522 34.2774 21.7394 34.2149 21.616 34.2008C21.4925 34.1867 21.3686 34.2221 21.2713 34.2994C21.174 34.3766 21.1113 34.4893 21.0971 34.6127C21.0828 34.7361 21.1182 34.8602 21.1953 34.9575L21.7707 35.6822C21.8432 35.7712 21.9455 35.8309 22.0586 35.8504C22.1718 35.8699 22.2881 35.8478 22.3863 35.7882L23.6859 34.9756C23.7911 34.9096 23.8658 34.8046 23.8936 34.6836C23.9214 34.5625 23.9001 34.4354 23.8342 34.3301C23.7684 34.2248 23.6635 34.15 23.5425 34.1219C23.4215 34.0939 23.2944 34.1151 23.189 34.1807L22.2445 34.7712L21.9295 34.3746Z" fill="#295090"/>
<path d="M11.2359 22.6964L10.2915 23.2869L9.97652 22.8902C9.89921 22.7928 9.7864 22.7302 9.66288 22.716C9.53937 22.7018 9.41528 22.7373 9.31791 22.8146C9.22055 22.8919 9.15787 23.0047 9.14369 23.1282C9.1295 23.2517 9.16496 23.3758 9.24227 23.4732L9.81768 24.1978C9.89015 24.2869 9.99243 24.3467 10.1056 24.3662C10.2188 24.3857 10.3352 24.3635 10.4332 24.3038L11.7329 23.4913C11.838 23.4253 11.9128 23.3202 11.9406 23.1992C11.9684 23.0782 11.947 22.9511 11.8812 22.8458C11.8154 22.7405 11.7105 22.6656 11.5895 22.6376C11.4685 22.6096 11.3413 22.6307 11.2359 22.6964Z" fill="#295090"/>
<path d="M33.8827 22.8903C33.8053 22.7931 33.6925 22.7306 33.5691 22.7165C33.4457 22.7024 33.3217 22.7378 33.2244 22.8151C33.1271 22.8923 33.0645 23.005 33.0502 23.1284C33.036 23.2518 33.0713 23.3759 33.1484 23.4732L33.7238 24.1979C33.7963 24.2869 33.8986 24.3467 34.0118 24.3661C34.1249 24.3856 34.2413 24.3635 34.3394 24.3039L35.639 23.4913C35.6913 23.4588 35.7367 23.4162 35.7725 23.3661C35.8083 23.3159 35.8339 23.2592 35.8478 23.1992C35.8617 23.1392 35.8636 23.077 35.8535 23.0162C35.8433 22.9554 35.8213 22.8973 35.7886 22.845C35.756 22.7928 35.7133 22.7475 35.6631 22.7117C35.613 22.676 35.5562 22.6505 35.4962 22.6367C35.4361 22.6229 35.3739 22.621 35.3132 22.6313C35.2524 22.6415 35.1943 22.6637 35.1421 22.6964L34.1976 23.2869L33.8827 22.8903Z" fill="#295090"/>
</g>
<defs>
<clipPath id="clip0">
<rect width="30" height="30" fill="white" transform="translate(7.5 8.5)"/>
</clipPath>
</defs>
</svg>
