<svg width="45" height="45" viewBox="0 0 45 45" fill="none" xmlns="http://www.w3.org/2000/svg">
<rect width="44.9992" height="45" rx="22.4996" fill="white"/>
<path d="M15.4642 9.50081C15.2516 9.49672 15.0351 9.50263 14.8152 9.51938C14.8096 9.52075 14.8041 9.52221 14.7986 9.52374C13.0529 9.71539 11.0747 10.4508 9.60522 12.029C8.13577 13.6072 7.22651 16.0183 7.57325 19.3679C8.07467 24.2117 11.7696 28.6798 15.2857 31.9783C18.8018 35.2769 22.1992 37.4137 22.1992 37.4137C22.2895 37.4704 22.3943 37.5005 22.5012 37.5005C22.6081 37.5005 22.7128 37.4704 22.8031 37.4137C22.8031 37.4137 26.1972 35.2769 29.7133 31.9783C33.2295 28.6798 36.9244 24.2117 37.4258 19.3679C37.7725 16.0183 36.8633 13.6072 35.3938 12.029C33.9244 10.4508 31.9461 9.71539 30.2004 9.52374C30.1949 9.52221 30.1894 9.52075 30.1839 9.51938C26.6647 9.25135 24.0758 11.7461 22.5001 13.9566C21.0228 11.8843 18.654 9.5622 15.4642 9.50081ZM29.5018 10.6257C29.6946 10.6195 29.8904 10.6241 30.088 10.6388C31.6068 10.8072 33.3231 11.4551 34.5652 12.7891C35.8096 14.1256 36.6274 16.1538 36.3062 19.2565C35.8562 23.604 32.3679 27.952 28.9387 31.1691C25.6629 34.2422 22.7771 36.0535 22.5001 36.2299C22.2209 36.0522 19.3349 34.241 16.0604 31.1691C12.6311 27.952 9.14287 23.604 8.69281 19.2565C8.37163 16.1538 9.19387 14.1256 10.4383 12.7891C11.6804 11.4551 13.3967 10.8072 14.9154 10.6388C18.0747 10.4063 20.6436 12.9414 22.0251 15.0716C22.0762 15.1503 22.1465 15.2149 22.2293 15.2597C22.3122 15.3045 22.4051 15.328 22.4995 15.328C22.5939 15.328 22.6868 15.3045 22.7697 15.2597C22.8526 15.2149 22.9228 15.1503 22.9739 15.0716C24.2696 13.0736 26.6096 10.7185 29.5018 10.6257ZM21.0874 19.1331V22.1003H18.11V24.8994H21.0874V27.8666H23.9116V24.8994H26.8891V22.1003H23.9116V19.1331H21.0874Z" fill="#295090"/>
</svg>
