<svg width="45" height="45" viewBox="0 0 45 45" fill="none" xmlns="http://www.w3.org/2000/svg">
<rect width="45" height="45" rx="22.5" fill="white"/>
<g clip-path="url(#clip0)">
<path d="M23.125 16.3125C23.125 14.7673 22.6668 13.2569 21.8084 11.9721C20.9499 10.6874 19.7298 9.686 18.3022 9.09469C16.8747 8.50339 15.3038 8.34867 13.7884 8.65012C12.2729 8.95157 10.8808 9.69563 9.78823 10.7882C8.69563 11.8808 7.95157 13.2729 7.65012 14.7884C7.34867 16.3038 7.50339 17.8747 8.09469 19.3022C8.686 20.7298 9.68735 21.9499 10.9721 22.8084C12.2569 23.6668 13.7673 24.125 15.3125 24.125C17.384 24.1233 19.3702 23.2997 20.8349 21.8349C22.2997 20.3702 23.1233 18.384 23.125 16.3125ZM8.75 16.3125C8.75 15.0146 9.13489 13.7458 9.85598 12.6666C10.5771 11.5874 11.602 10.7462 12.8011 10.2495C14.0003 9.75284 15.3198 9.62288 16.5928 9.8761C17.8658 10.1293 19.0351 10.7543 19.9529 11.6721C20.8707 12.5899 21.4957 13.7592 21.7489 15.0322C22.0021 16.3052 21.8722 17.6247 21.3755 18.8239C20.8788 20.023 20.0376 21.0479 18.9584 21.769C17.8792 22.4901 16.6104 22.875 15.3125 22.875C13.5725 22.8733 11.9043 22.1814 10.6739 20.9511C9.44359 19.7207 8.75166 18.0525 8.75 16.3125ZM29.6875 22.875C28.1423 22.875 26.6319 23.3332 25.3471 24.1916C24.0624 25.0501 23.061 26.2702 22.4697 27.6978C21.8784 29.1253 21.7237 30.6962 22.0251 32.2116C22.3266 33.7271 23.0706 35.1192 24.1632 36.2118C25.2558 37.3044 26.6479 38.0484 28.1634 38.3499C29.6788 38.6513 31.2497 38.4966 32.6772 37.9053C34.1048 37.314 35.3249 36.3126 36.1834 35.0279C37.0418 33.7431 37.5 32.2327 37.5 30.6875C37.4983 28.616 36.6747 26.6298 35.2099 25.1651C33.7452 23.7003 31.759 22.8767 29.6875 22.875ZM29.6875 37.25C28.3896 37.25 27.1208 36.8651 26.0416 36.144C24.9624 35.4229 24.1212 34.398 23.6245 33.1989C23.1278 31.9997 22.9979 30.6802 23.2511 29.4072C23.5043 28.1342 24.1293 26.9649 25.0471 26.0471C25.9649 25.1293 27.1342 24.5043 28.4072 24.2511C29.6802 23.9979 30.9997 24.1278 32.1989 24.6245C33.398 25.1212 34.4229 25.9624 35.144 27.0416C35.8651 28.1208 36.25 29.3896 36.25 30.6875C36.2483 32.4275 35.5564 34.0957 34.3261 35.3261C33.0957 36.5564 31.4275 37.2483 29.6875 37.25ZM33.125 27.875C33.125 28.0408 33.0592 28.1997 32.9419 28.3169C32.8247 28.4342 32.6658 28.5 32.5 28.5H30.8C31.1522 28.876 31.3905 29.3441 31.4875 29.85C31.5059 30.0245 31.5059 30.2005 31.4875 30.375H31.875C32.0408 30.375 32.1997 30.4408 32.3169 30.5581C32.4342 30.6753 32.5 30.8342 32.5 31C32.5 31.1658 32.4342 31.3247 32.3169 31.4419C32.1997 31.5592 32.0408 31.625 31.875 31.625H31.1875C30.9083 32.1697 30.5456 32.6674 30.1125 33.1C30.7755 33.3543 31.3477 33.8004 31.7563 34.3812C31.8083 34.4475 31.8465 34.5235 31.8684 34.6048C31.8903 34.6861 31.8956 34.7711 31.8839 34.8545C31.8722 34.9379 31.8438 35.0181 31.8003 35.0902C31.7568 35.1624 31.6992 35.225 31.6309 35.2743C31.5626 35.3236 31.4851 35.3586 31.4029 35.3772C31.3208 35.3958 31.2357 35.3976 31.1528 35.3825C31.07 35.3674 30.991 35.3357 30.9207 35.2893C30.8504 35.2429 30.7902 35.1827 30.7437 35.1125C30.5307 34.7989 30.2421 34.544 29.9046 34.3714C29.567 34.1989 29.1914 34.1141 28.8125 34.125C28.6784 34.1397 28.5431 34.1107 28.4268 34.0421C28.3106 33.9736 28.2196 33.8693 28.1676 33.7448C28.1155 33.6203 28.1052 33.4823 28.1381 33.3514C28.1709 33.2206 28.2453 33.1039 28.35 33.0187C28.867 32.6139 29.3311 32.1457 29.7313 31.625H28.75C28.5842 31.625 28.4253 31.5592 28.3081 31.4419C28.1908 31.3247 28.125 31.1658 28.125 31C28.125 30.8342 28.1908 30.6753 28.3081 30.5581C28.4253 30.4408 28.5842 30.375 28.75 30.375H30.275C30.287 30.2754 30.287 30.1746 30.275 30.075C30.1187 29.25 29.1063 28.6875 28.6313 28.5H26.875C26.7092 28.5 26.5503 28.4342 26.4331 28.3169C26.3158 28.1997 26.25 28.0408 26.25 27.875C26.25 27.7092 26.3158 27.5503 26.4331 27.4331C26.5503 27.3158 26.7092 27.25 26.875 27.25H32.5C32.6658 27.25 32.8247 27.3158 32.9419 27.4331C33.0592 27.5503 33.125 27.7092 33.125 27.875ZM23.75 13.5C23.75 13.3342 23.8158 13.1753 23.9331 13.0581C24.0503 12.9409 24.2092 12.875 24.375 12.875H31.25C31.4158 12.875 31.5747 12.9409 31.6919 13.0581C31.8092 13.1753 31.875 13.3342 31.875 13.5V19.4938L33.3062 18.0625C33.4258 17.9601 33.5796 17.9066 33.7369 17.9127C33.8942 17.9188 34.0434 17.984 34.1547 18.0953C34.266 18.2066 34.3312 18.3558 34.3373 18.5131C34.3434 18.6704 34.2899 18.8242 34.1875 18.9438L31.6875 21.4438C31.5704 21.5602 31.412 21.6255 31.2469 21.6255C31.0818 21.6255 30.9234 21.5602 30.8063 21.4438L28.3063 18.9438C28.2039 18.8242 28.1504 18.6704 28.1564 18.5131C28.1625 18.3558 28.2277 18.2066 28.339 18.0953C28.4503 17.984 28.5995 17.9188 28.7568 17.9127C28.9141 17.9066 29.0679 17.9601 29.1875 18.0625L30.625 19.4938V14.125H24.375C24.2092 14.125 24.0503 14.0592 23.9331 13.9419C23.8158 13.8247 23.75 13.6658 23.75 13.5ZM21.25 33.5C21.25 33.6658 21.1842 33.8247 21.0669 33.9419C20.9497 34.0592 20.7908 34.125 20.625 34.125H13.75C13.5842 34.125 13.4253 34.0592 13.3081 33.9419C13.1909 33.8247 13.125 33.6658 13.125 33.5V27.5063L11.6938 28.9437C11.5742 29.0461 11.4204 29.0996 11.2631 29.0936C11.1058 29.0875 10.9566 29.0223 10.8453 28.911C10.734 28.7997 10.6688 28.6505 10.6627 28.4932C10.6566 28.3359 10.7101 28.1821 10.8125 28.0625L13.3125 25.5625C13.4296 25.4461 13.588 25.3808 13.7531 25.3808C13.9182 25.3808 14.0767 25.4461 14.1938 25.5625L16.6938 28.0625C16.7592 28.1185 16.8123 28.1875 16.8498 28.265C16.8873 28.3426 16.9084 28.427 16.9118 28.5131C16.9151 28.5992 16.9006 28.685 16.8692 28.7652C16.8377 28.8454 16.7901 28.9182 16.7292 28.9792C16.6683 29.0401 16.5954 29.0877 16.5152 29.1191C16.435 29.1506 16.3492 29.1651 16.2631 29.1617C16.177 29.1584 16.0926 29.1373 16.015 29.0998C15.9375 29.0623 15.8685 29.0092 15.8125 28.9437L14.375 27.5063V32.875H20.625C20.7908 32.875 20.9497 32.9408 21.0669 33.0581C21.1842 33.1753 21.25 33.3342 21.25 33.5ZM16.25 21V20C16.6423 19.9422 17.0158 19.7941 17.3412 19.5675C17.6665 19.3408 17.9348 19.0417 18.125 18.6938C18.23 18.4554 18.2811 18.1968 18.2747 17.9364C18.2682 17.6761 18.2043 17.4203 18.0875 17.1875C17.6864 16.468 17.0311 15.9242 16.25 15.6625V13.3375C16.4609 13.3557 16.6699 13.3912 16.875 13.4438C16.9586 13.4814 17.0494 13.5002 17.141 13.4988C17.2327 13.4975 17.3229 13.476 17.4053 13.4358C17.4877 13.3957 17.5603 13.3379 17.6179 13.2666C17.6755 13.1953 17.7167 13.1122 17.7386 13.0232C17.7605 12.9342 17.7626 12.8415 17.7446 12.7516C17.7267 12.6617 17.6892 12.5769 17.6348 12.5031C17.5805 12.4293 17.5105 12.3684 17.43 12.3247C17.3494 12.2809 17.2602 12.2554 17.1688 12.25C16.8681 12.1679 16.5606 12.1136 16.25 12.0875V11.625C16.25 11.4592 16.1842 11.3003 16.0669 11.1831C15.9497 11.0659 15.7908 11 15.625 11C15.4592 11 15.3003 11.0659 15.1831 11.1831C15.0659 11.3003 15 11.4592 15 11.625V12.15C14.5831 12.1992 14.1841 12.3474 13.8361 12.5822C13.4882 12.8171 13.2015 13.1318 13 13.5C12.895 13.7383 12.8439 13.9969 12.8503 14.2573C12.8568 14.5177 12.9207 14.7734 13.0375 15.0063C13.4671 15.7595 14.1697 16.3188 15 16.5688V18.8438C14.7467 18.8289 14.4955 18.7892 14.25 18.725C14.0922 18.6882 13.9262 18.7142 13.7872 18.7974C13.6482 18.8807 13.5469 19.0146 13.5047 19.1711C13.4626 19.3276 13.4828 19.4943 13.5612 19.6361C13.6396 19.7779 13.7701 19.8838 13.925 19.9313C14.2745 20.0231 14.6328 20.0776 14.9938 20.0938V21C14.9938 21.1666 15.0599 21.3264 15.1777 21.4442C15.2955 21.5619 15.4553 21.6281 15.6219 21.6281C15.7885 21.6281 15.9482 21.5619 16.066 21.4442C16.1838 21.3264 16.25 21.1666 16.25 21ZM16.9375 17.725C16.9723 17.796 16.9904 17.8741 16.9904 17.9531C16.9904 18.0322 16.9723 18.1102 16.9375 18.1813C16.778 18.4429 16.5221 18.6314 16.225 18.7063V17.05C16.5231 17.201 16.7707 17.4355 16.9375 17.725ZM14.1625 14.45C14.1277 14.379 14.1097 14.301 14.1097 14.2219C14.1097 14.1428 14.1277 14.0648 14.1625 13.9938C14.2564 13.8473 14.3791 13.7214 14.523 13.6236C14.667 13.5259 14.8292 13.4583 15 13.425V15.2063C14.6498 15.0461 14.3574 14.7821 14.1625 14.45Z" fill="#295090"/>
</g>
<defs>
<clipPath id="clip0">
<rect width="30" height="30" fill="white" transform="translate(7.5 8.5)"/>
</clipPath>
</defs>
</svg>
