<svg width="45" height="45" viewBox="0 0 45 45" fill="none" xmlns="http://www.w3.org/2000/svg">
<rect width="45" height="45" rx="22.5" fill="white"/>
<g clip-path="url(#clip0)">
<path d="M23.4569 12.3797C23.1203 12.3797 22.8482 12.109 22.8482 11.7755C22.8482 10.9116 22.1397 10.2083 21.2699 10.2083C20.4 10.2083 19.6915 10.9116 19.6915 11.7755C19.6915 12.109 19.4188 12.3797 19.0828 12.3797C18.7468 12.3797 18.4741 12.109 18.4741 11.7755C18.4741 10.2452 19.728 9 21.2699 9C22.8117 9 24.0656 10.2452 24.0656 11.7755C24.0656 12.109 23.7935 12.3797 23.4569 12.3797Z" fill="#295090"/>
<path d="M30.8283 35.6842H30.521C30.331 35.6842 30.1527 35.596 30.037 35.4468L29.4783 34.7206H21.2657C21.1489 34.7206 21.0338 34.6868 20.9352 34.6239L14.2883 30.3603C14.2651 30.3458 14.2426 30.3289 14.2219 30.3108C13.7313 29.8927 13.4136 29.1387 13.8756 28.4711C14.1568 28.0651 14.5853 27.8416 15.082 27.8416C15.547 27.8416 15.9232 28.0337 15.9944 28.0729C17.5478 28.7992 20.371 30.0051 21.1927 30.0758C21.6626 30.115 22.6207 30.1664 23.5477 30.1573C23.0145 30.0069 22.432 29.8571 21.8896 29.7308C21.8671 29.7253 21.8452 29.7187 21.8233 29.7114C21.0807 29.4474 20.9048 28.8566 20.979 28.4306C21.0831 27.8367 21.6529 27.3528 22.2494 27.3528C23.1034 27.3528 24.2569 27.3528 26.5894 27.3703C27.9322 27.3812 32.2557 28.491 32.2557 29.3967C32.2557 29.4251 32.2539 29.4541 32.2497 29.4825L31.4316 35.1659C31.3883 35.4631 31.1315 35.6842 30.8283 35.6842ZM21.4453 33.5123H29.779C29.9689 33.5123 30.1472 33.6005 30.2629 33.7497L30.3822 33.9056L30.9793 29.7543C30.1563 29.3888 28.1842 28.5913 26.579 28.5792C24.2514 28.5617 23.1003 28.5617 22.2488 28.5617C22.2457 28.5629 22.2403 28.5666 22.2348 28.5714C26.0312 29.4595 26.2759 29.9205 26.3934 30.1434C26.5072 30.3585 26.4993 30.6092 26.3745 30.8141C26.1767 31.1379 25.8553 31.3669 23.5082 31.3669C22.5379 31.3669 21.5932 31.324 21.0886 31.2805C19.7793 31.1681 15.8812 29.3556 15.4411 29.1496C15.3681 29.1121 15.2196 29.0511 15.0826 29.0511C14.9852 29.0511 14.9341 29.0777 14.8793 29.1568C14.8708 29.2052 14.9292 29.3061 14.9974 29.3773L21.4453 33.5123Z" fill="#295090"/>
<path d="M35.7058 37.9999C35.6596 37.9999 35.6127 37.9945 35.5664 37.9842L30.6494 36.8351C30.3432 36.7632 30.1423 36.4708 30.1862 36.162L31.2502 28.735C31.2733 28.5743 31.3603 28.4299 31.4918 28.3338C31.6233 28.2378 31.7889 28.1973 31.9496 28.2233L35.8026 28.8395C36.0972 28.8867 36.3145 29.1392 36.3145 29.4358V37.3957C36.3145 37.5806 36.2293 37.7552 36.0838 37.8694C35.9755 37.9546 35.8416 37.9999 35.7058 37.9999ZM31.4699 35.785L35.0971 36.6327V29.95L32.3683 29.5138L31.4699 35.785Z" fill="#295090"/>
<path d="M29.6644 26.5609H12.8765C12.5405 26.5609 12.2678 26.2908 12.2678 25.9567V25.8516H11.2799C10.9439 25.8516 10.6712 25.5815 10.6712 25.2474V24.6988H9.29375C8.95775 24.6988 8.68506 24.4288 8.68506 24.0946V22.0199C8.68506 21.6864 8.95775 21.4158 9.29375 21.4158H33.2471C33.5838 21.4158 33.8558 21.6864 33.8558 22.0199V24.0953C33.8558 24.4294 33.5838 24.6994 33.2471 24.6994H31.8691V25.248C31.8691 25.5821 31.597 25.8522 31.2604 25.8522H30.2731V25.9573C30.2731 26.2908 30.0004 26.5609 29.6644 26.5609ZM13.4852 25.3525H29.0557V25.2474C29.0557 24.9133 29.3278 24.6432 29.6644 24.6432H30.6523V24.0946C30.6523 23.7611 30.9244 23.4905 31.261 23.4905H32.6391V22.6241H9.90245V23.4911H11.2799C11.6159 23.4911 11.8886 23.7618 11.8886 24.0953V24.6438H12.8765C13.2125 24.6438 13.4852 24.9139 13.4852 25.248V25.3525Z" fill="#295090"/>
<path d="M10.941 22.624C10.6044 22.624 10.3323 22.3533 10.3323 22.0198C10.3365 16.0379 15.2432 11.1714 21.2699 11.1714C27.2972 11.1714 32.2033 16.0379 32.207 22.0198C32.207 22.3533 31.9349 22.624 31.5989 22.624C31.5983 22.624 31.5983 22.624 31.5983 22.624C31.2623 22.624 30.9896 22.3539 30.9896 22.0198C30.9859 16.7043 26.6258 12.3791 21.2699 12.3791C15.914 12.3791 11.5533 16.7043 11.5497 22.0198C11.5491 22.3539 11.277 22.624 10.941 22.624Z" fill="#295090"/>
</g>
<defs>
<clipPath id="clip0">
<rect width="28" height="29" fill="white" transform="translate(8.5 9)"/>
</clipPath>
</defs>
</svg>
